<?xml version="1.0" standalone="no"?>
<!DOCTYPE svg PUBLIC "-//W3C//DTD SVG 20010904//EN"
 "http://www.w3.org/TR/2001/REC-SVG-20010904/DTD/svg10.dtd">
<svg version="1.0" xmlns="http://www.w3.org/2000/svg"
 width="182.000000pt" height="134.000000pt" viewBox="0 0 182.000000 134.000000"
 preserveAspectRatio="xMidYMid meet">

<g transform="translate(0.000000,134.000000) scale(0.100000,-0.100000)"
fill="#000000" stroke="none">
<path d="M214 1221 c-88 -26 -166 -51 -172 -55 -7 -4 -12 -16 -12 -26 0 -15
14 -24 62 -38 34 -11 64 -24 66 -30 2 -6 -22 -16 -54 -23 -60 -14 -86 -31 -78
-53 5 -13 79 -38 226 -76 64 -17 66 -17 63 1 -2 10 0 21 5 24 8 5 5 50 -5 64
-2 3 27 6 63 6 94 0 392 96 392 126 0 11 -10 24 -22 29 -42 18 -331 100 -352
99 -12 0 -93 -22 -182 -48z"/>
<path d="M1510 1135 l0 -135 135 0 135 0 0 135 0 135 -135 0 -135 0 0 -135z"/>
<path d="M1310 1190 l0 -60 65 0 65 0 0 60 0 60 -65 0 -65 0 0 -60z"/>
<path d="M774 1024 c3 -9 6 -19 6 -24 0 -8 185 -11 207 -3 7 3 13 14 13 24 0
18 -9 19 -116 19 -102 0 -115 -2 -110 -16z"/>
<path d="M1110 780 l0 -60 65 0 65 0 0 60 0 60 -65 0 -65 0 0 -60z"/>
<path d="M920 741 l0 -51 51 0 50 0 -3 48 -3 47 -47 3 -48 3 0 -50z"/>
<path d="M331 515 l1 -230 -66 -77 -67 -78 16 -30 c8 -16 24 -34 34 -40 13 -6
249 -10 689 -10 l670 0 26 31 c14 17 26 35 26 41 0 6 -30 46 -67 89 l-67 80 0
132 -1 132 -37 3 -38 3 0 -100 c0 -77 -4 -103 -16 -115 -14 -14 -74 -16 -508
-16 -369 0 -495 3 -504 12 -8 8 -12 68 -12 204 l0 192 -40 4 -41 4 2 -231z
m802 -356 c9 -12 17 -25 17 -30 0 -5 -98 -9 -220 -9 -121 0 -220 3 -220 8 1
11 34 49 47 53 7 2 90 3 185 1 161 -2 174 -4 191 -23z m-78 -69 c0 -12 -22
-15 -122 -18 -118 -3 -123 -2 -123 18 0 20 5 21 123 18 100 -3 122 -6 122 -18z"/>
<path d="M1230 630 l0 -60 65 0 65 0 0 60 0 60 -65 0 -65 0 0 -60z"/>
<path d="M834 636 c-3 -7 -4 -33 -2 -57 l3 -44 58 -3 57 -3 0 61 0 60 -55 0
c-38 0 -57 -4 -61 -14z"/>
</g>
</svg>
